<svg width="79" height="30" viewBox="0 0 79 30" fill="none" xmlns="http://www.w3.org/2000/svg">
<path d="M24.4627 26.1922L24.437 26.1794L24.4499 26.2051L24.4627 26.1922Z" fill="#004A98"/>
<path d="M9.27539 9.33746H10.2325V29.9252C10.0569 29.9463 9.88027 29.9569 9.70346 29.957C9.56139 29.957 9.41933 29.957 9.27539 29.9365V9.33746Z" fill="#009845"/>
<path fill-rule="evenodd" clip-rule="evenodd" d="M10.1613 18.8377C10.1613 18.8265 10.1202 17.2727 10.1613 17.2278C11.6948 15.2947 13.8203 13.917 16.2123 13.306C16.2908 13.6048 16.3581 13.9148 16.4179 14.2267C13.8135 14.8964 11.5707 16.5494 10.1613 18.8377V18.8377Z" fill="#009845"/>
<path fill-rule="evenodd" clip-rule="evenodd" d="M9.29765 18.8378C7.88199 16.5337 5.62268 14.8722 3 14.2063C3.05982 13.8963 3.12898 13.5863 3.20375 13.2856C5.61585 13.8931 7.75986 15.2789 9.30326 17.228C9.33504 17.2728 9.29391 18.8266 9.29765 18.8378Z" fill="#009845"/>
<path fill-rule="evenodd" clip-rule="evenodd" d="M10.1613 24.0219C10.1613 24.0219 10.1202 22.4607 10.1613 22.4159C11.816 20.3317 14.1519 18.8957 16.76 18.3596C16.76 18.6864 16.7375 19.0095 16.7188 19.3325C15.3683 19.6385 14.0925 20.2109 12.9665 21.0162C11.8404 21.8215 10.8867 22.8434 10.1613 24.0219Z" fill="#009845"/>
<path fill-rule="evenodd" clip-rule="evenodd" d="M9.29769 24.022C8.56802 22.8366 7.60746 21.8097 6.47299 21.0023C5.33851 20.1948 4.05325 19.6232 2.69347 19.3214C2.67104 19.0002 2.65982 18.6771 2.65234 18.3484C5.28122 18.8719 7.63841 20.3115 9.30329 22.4104C9.33507 22.4608 9.29395 24.0146 9.29769 24.022Z" fill="#009845"/>
<path fill-rule="evenodd" clip-rule="evenodd" d="M10.1613 21.3028C10.1613 21.3028 10.1202 19.7416 10.1613 19.6986C11.8183 17.6769 14.0928 16.2534 16.6366 15.646C16.6721 15.9448 16.7001 16.2474 16.7207 16.5518C12.3036 17.592 10.1613 21.3028 10.1613 21.3028Z" fill="#009845"/>
<path fill-rule="evenodd" clip-rule="evenodd" d="M9.29774 21.3029C9.29774 21.3029 7.14244 17.5678 2.69727 16.5425C2.71596 16.2362 2.74961 15.9318 2.78325 15.6349C5.3448 16.2363 7.63645 17.6646 9.30335 19.6987C9.33512 19.7416 9.294 21.2898 9.29774 21.3029Z" fill="#009845"/>
<path fill-rule="evenodd" clip-rule="evenodd" d="M10.1613 16.2605C10.1613 16.2605 10.1202 14.6993 10.1613 14.6507C11.797 12.4769 14.0869 11.4143 15.4346 10.9474C15.5561 11.2294 15.6683 11.517 15.773 11.8195C12.255 12.9288 10.1613 16.2605 10.1613 16.2605Z" fill="#009845"/>
<path fill-rule="evenodd" clip-rule="evenodd" d="M9.29777 16.2604C9.29777 16.2604 7.18733 12.8988 3.64502 11.8044C3.75344 11.5056 3.86373 11.2143 3.9871 10.9341C5.33486 11.3936 7.64905 12.4543 9.30338 14.6506C9.33515 14.6991 9.29403 16.2473 9.29777 16.2604Z" fill="#009845"/>
<path fill-rule="evenodd" clip-rule="evenodd" d="M10.2102 25.1149C12.4384 22.1493 15.8629 21.2584 16.519 21.1034C16.4854 21.2902 16.4517 21.4882 16.4144 21.6805L16.2499 22.153C12.4758 23.111 10.2102 26.7173 10.2102 26.7173C10.2102 26.7173 10.169 25.1616 10.2102 25.1149Z" fill="#009845"/>
<path fill-rule="evenodd" clip-rule="evenodd" d="M9.34625 26.7224C9.34625 26.7224 7.08067 23.1162 3.30843 22.1581L2.93457 21.0843C2.93457 21.0843 6.88065 21.8313 9.35373 25.1144C9.38924 25.1611 9.34625 26.7149 9.34625 26.7224Z" fill="#009845"/>
<path fill-rule="evenodd" clip-rule="evenodd" d="M10.1431 13.8088V12.1822C11.4516 10.4715 13.162 9.46116 14.3396 8.91771C14.5135 9.17543 14.6817 9.44996 14.8387 9.73383C12.9187 10.6202 11.2902 12.0334 10.1431 13.8088V13.8088Z" fill="#009845"/>
<path fill-rule="evenodd" clip-rule="evenodd" d="M9.31825 13.8084C8.16262 12.0187 6.51829 10.5969 4.57959 9.71103C4.73661 9.4253 4.90672 9.15077 5.07869 8.89865C6.25635 9.43464 7.99666 10.4431 9.30891 12.1781L9.31825 13.8084Z" fill="#009845"/>
<path fill-rule="evenodd" clip-rule="evenodd" d="M10.1353 29.2791V27.6488C12.3373 24.7578 15.702 23.867 15.702 23.867L15.3282 24.9875C13.1968 25.8508 11.3836 27.3493 10.1353 29.2791V29.2791Z" fill="#009845"/>
<path fill-rule="evenodd" clip-rule="evenodd" d="M9.3034 29.2792C8.05471 27.3474 6.24001 25.8475 4.10677 24.9838L3.73291 23.8633C3.73291 23.8633 7.09764 24.7541 9.3034 27.6451V29.2792Z" fill="#009845"/>
<path d="M9.84912 0L11.7782 1.92543L9.84912 3.849L7.92188 1.92543L9.84912 0Z" fill="#FDB92A"/>
<path d="M14.1787 0.383072L16.1078 2.30664L14.1787 4.23581L12.2515 2.30664L14.1787 0.383072Z" fill="#FDB92A"/>
<path d="M5.31071 0.30838L7.23982 2.23195L5.31071 4.15738L3.38721 2.23195L5.31071 0.30838Z" fill="#FDB92A"/>
<path d="M19.4148 2.2334H17.4165V4.96935L19.4148 2.2334Z" fill="#FDB92A"/>
<path d="M0 2.2334H1.9908V4.96935L0 2.2334Z" fill="#FDB92A"/>
<path d="M9.70369 28.8552H9.76725C14.7003 28.8552 18.4221 24.7578 18.4221 19.8294V7.50359H9.70369V6.36626H19.3922V20.0759C19.3922 25.5534 15.2798 30 9.7822 30H9.70369V28.8552ZM0.994647 19.8312C0.994647 24.7391 4.80053 28.8235 9.70369 28.8552V30C4.2547 29.9571 0.0151367 25.531 0.0151367 20.0759V6.36626H9.70369V7.50919H0.994647V19.8312Z" fill="#004A98"/>
<path fill-rule="evenodd" clip-rule="evenodd" d="M77.0149 27.5054V26.8106C77.1463 26.8119 77.2762 26.7823 77.394 26.7242C77.5119 26.6661 77.6144 26.5812 77.6935 26.4763C77.8446 26.2479 77.9168 25.9764 77.8991 25.7032H77.4747C77.3208 25.701 77.1669 25.7122 77.0149 25.7368V25.1261C77.1308 25.1261 77.2467 25.1149 77.3551 25.1149H77.8991C77.8991 24.5098 77.6262 24.3025 77.0485 24.3025H77.0149V23.5947H77.1644C78.3159 23.5947 78.7889 24.0709 78.7889 25.1803V25.664C78.7889 26.0375 78.7889 26.3288 78.8038 26.6071C78.8188 26.8853 78.83 27.1543 78.8487 27.4456H77.9851C77.9583 27.26 77.9433 27.0728 77.9402 26.8853H77.9252C77.8286 27.05 77.697 27.1915 77.5397 27.2999C77.3824 27.4083 77.2033 27.481 77.0149 27.5128V27.5054ZM77.0149 20.1977V19.4768C77.1173 19.4948 77.2212 19.5035 77.3252 19.5029C77.5738 19.5029 77.9701 19.4077 77.9701 19.0435C77.9701 18.642 77.471 18.6084 77.0149 18.444V16.4047C77.2494 16.321 77.4968 16.2793 77.7458 16.2814C78.1063 16.285 78.4652 16.3308 78.815 16.4178L78.744 17.1648C78.4675 17.0541 78.1726 16.9965 77.8748 16.9948C77.6093 16.9948 77.2934 17.0901 77.2934 17.4132C77.2934 18.0108 79.0001 17.6317 79.0001 18.9912C79.0001 19.8652 78.2206 20.2182 77.4168 20.2182C77.2897 20.2182 77.1514 20.2089 77.0205 20.1977H77.0149ZM77.0149 12.9142V12.1504C77.7626 12.1504 77.9626 11.4744 77.9626 10.8431C77.9626 10.2661 77.6561 9.72262 77.0149 9.72262V8.96439C78.1365 8.96439 78.987 9.71141 78.987 10.9589C78.9926 12.0458 78.2729 12.9086 77.0149 12.9105V12.9142ZM77.0149 8.96439V9.72448C76.3756 9.72448 76.0803 10.2847 76.0803 10.845C76.0803 11.465 76.2784 12.1523 77.0149 12.1523V12.9124C75.7718 12.9124 75.0447 12.0477 75.0447 10.9683C75.0447 9.72448 75.9045 8.97373 77.0149 8.97373V8.96439ZM77.0149 16.3972V18.444C76.6242 18.3077 76.2672 18.0705 76.2672 17.4486C76.2614 17.2171 76.3313 16.99 76.4662 16.8017C76.6011 16.6133 76.7937 16.474 77.0149 16.4047V16.3972ZM77.0149 19.4693V20.1902C76.774 20.1607 76.5354 20.1145 76.3008 20.052L76.3606 19.2452C76.5657 19.3535 76.7865 19.4291 77.0149 19.4693V19.4693ZM77.0149 23.5779V24.2857C76.6078 24.305 76.2164 24.4484 75.8933 24.6966L75.8634 23.858C76.23 23.6965 76.6224 23.6016 77.0224 23.5779H77.0149ZM77.0149 25.1093V25.72C76.684 25.7816 76.3849 25.9404 76.3849 26.3344C76.3849 26.6556 76.6541 26.7938 77.0037 26.7938H77.0149V27.4885C76.9329 27.5038 76.8497 27.5119 76.7663 27.5128C76.0952 27.5128 75.4428 27.1094 75.4428 26.3923C75.429 26.1684 75.4836 25.9456 75.5994 25.7535C75.7153 25.5614 75.8869 25.409 76.0915 25.3166C76.3831 25.1885 76.6965 25.1175 77.0149 25.1074V25.1093ZM73.5642 20.1696V19.4992C73.6729 19.4833 73.7773 19.4458 73.8714 19.389C73.9654 19.3323 74.0472 19.2574 74.1119 19.1686C74.267 18.942 74.3401 18.6693 74.3194 18.3955H73.895C73.7845 18.3954 73.674 18.4017 73.5642 18.4142V17.8165H73.7829H74.3194C74.3194 17.2395 74.0745 17.0284 73.5717 17.0042V16.2814H73.5941C74.7418 16.2814 75.2185 16.7539 75.2185 17.867V18.3488C75.2185 18.7223 75.2297 19.0155 75.2335 19.2826C75.2372 19.5496 75.2559 19.8316 75.2783 20.1286H74.4166C74.3901 19.9429 74.3751 19.7558 74.3717 19.5683H74.3568C74.2718 19.7149 74.1588 19.8434 74.024 19.9463C73.8893 20.0491 73.7356 20.1244 73.5717 20.1678L73.5642 20.1696ZM73.5642 12.9124V12.1392C73.611 12.1526 73.6595 12.1589 73.7081 12.1579C73.865 12.1648 74.0208 12.1286 74.1586 12.0533L74.1885 12.8283C73.9851 12.8843 73.7752 12.9138 73.5642 12.9161V12.9124ZM73.5642 9.77864V9.0559H74.125V9.77491L73.5642 9.77864ZM73.682 27.4437H74.6596V23.675H73.682V27.44V27.4437ZM73.682 22.9934H74.6596V22.0596H73.682V22.9934ZM73.5642 9.05964V9.77864H73.2464V11.5323C73.2464 11.8049 73.3137 12.0645 73.5642 12.1355V12.9124H73.4632C72.695 12.9124 72.2706 12.438 72.2706 11.6929V9.77491H71.551V9.0559H72.2706V8.30889L73.2501 7.9914V9.05777L73.5642 9.05964ZM73.5642 16.2852V16.9948H73.4632C73.0418 17.0047 72.6345 17.1486 72.3005 17.4057L72.2744 16.5634C72.6793 16.3866 73.1149 16.2908 73.5567 16.2814L73.5642 16.2852ZM73.5642 17.8165V18.4142C73.1903 18.4608 72.8071 18.6009 72.8071 19.0473C72.8071 19.3666 73.0744 19.5067 73.4259 19.5067C73.4745 19.5067 73.5156 19.5067 73.5642 19.5067V20.1696C73.4425 20.2038 73.3167 20.2214 73.1903 20.2219C72.5249 20.2219 71.8818 19.8185 71.8818 19.1014C71.868 18.8783 71.922 18.6561 72.0368 18.4642C72.1515 18.2722 72.3217 18.1194 72.5249 18.0257C72.8574 17.8835 73.2156 17.811 73.5773 17.8128L73.5642 17.8165ZM68.1974 27.4792V26.805C68.3077 26.7903 68.414 26.754 68.5102 26.6983C68.6064 26.6425 68.6907 26.5684 68.7582 26.4801C68.9082 26.2513 68.9791 25.9797 68.9601 25.7069H68.5358C68.4246 25.7044 68.3134 25.71 68.203 25.7237V25.1261C68.2778 25.1261 68.3488 25.1261 68.4199 25.1261H68.9601C68.9601 24.5528 68.7171 24.338 68.203 24.3175V23.6003H68.2292C69.3807 23.6003 69.8536 24.0765 69.8536 25.1859V25.6696C69.8536 26.0431 69.8536 26.3344 69.8686 26.6127C69.8835 26.8909 69.891 27.1599 69.9135 27.4512H69.0461C69.0222 27.2653 69.0085 27.0783 69.005 26.8909H68.9769C68.8029 27.1853 68.5204 27.3998 68.19 27.4885L68.1974 27.4792ZM68.1974 20.1379V16.6213C68.2873 16.7159 68.3611 16.8243 68.4161 16.9425C68.5315 16.7346 68.7022 16.5628 68.9095 16.4461C69.1167 16.3294 69.3523 16.2724 69.5901 16.2814C70.5247 16.2814 70.7883 16.9145 70.7883 17.7549V20.1342H69.8013V17.8931C69.8013 17.542 69.8013 17.0434 69.2405 17.0434C68.5881 17.0434 68.5077 17.8221 68.5077 18.3077V20.1398L68.1974 20.1379ZM68.1974 10.0532V9.27067C68.4731 9.0574 68.8156 8.94885 69.1639 8.96439C70.0518 8.96439 70.4387 9.59189 70.4387 10.4398V12.8209H69.4592V10.8114C69.4592 10.3501 69.4592 9.73195 68.8255 9.73195C68.7027 9.72721 68.5807 9.75389 68.4712 9.80945C68.3616 9.86501 68.268 9.94762 68.1993 10.0494L68.1974 10.0532ZM70.8462 27.44H71.8239V26.058C71.8239 25.5164 71.8239 24.5229 72.6202 24.5229C72.7712 24.5157 72.9218 24.5445 73.0595 24.6069V23.6171C72.9621 23.5946 72.8621 23.5852 72.7623 23.5891C72.1734 23.5891 71.7715 24.1793 71.7267 24.5322H71.7117V23.675H70.8462V27.44ZM68.1974 9.27067V10.0494C68.03 10.3315 67.9463 10.6554 67.9563 10.9832V12.8265H66.9787V9.0559H67.9133V9.56948H67.9283C68.0081 9.45967 68.1003 9.35941 68.203 9.27067H68.1974ZM68.1974 16.6138V20.1342H67.5338V17.8931C67.5338 17.542 67.5338 17.0434 66.9731 17.0434C66.3225 17.0434 66.2403 17.8221 66.2403 18.3077V20.1398H65.257V16.3655H66.173V16.894H66.1879C66.3082 16.7058 66.474 16.551 66.6701 16.4439C66.8661 16.3368 67.0861 16.2809 67.3095 16.2814C67.4732 16.2713 67.6373 16.2964 67.7904 16.355C67.9436 16.4137 68.0824 16.5045 68.1974 16.6213V16.6138ZM68.1974 23.5891V24.3063H68.1077C67.6861 24.3155 67.2786 24.4595 66.945 24.7171L66.9151 23.8786C67.3196 23.7001 67.7554 23.603 68.1974 23.5929V23.5891ZM68.1974 25.1224V25.72C67.8236 25.7648 67.4497 25.9067 67.4497 26.3512C67.4497 26.6724 67.7208 26.8106 68.0703 26.8106C68.1154 26.8112 68.1604 26.8081 68.2049 26.8013V27.4755C68.0834 27.5108 67.9576 27.529 67.8311 27.5296C67.1637 27.5296 66.5226 27.1262 66.5226 26.4091C66.5083 26.1861 66.5619 25.964 66.6764 25.7721C66.7908 25.5801 66.9607 25.4272 67.1637 25.3334C67.4957 25.1917 67.8532 25.1192 68.2143 25.1205L68.1974 25.1224ZM63.9392 24.3642V23.6582C64.1076 23.6108 64.282 23.5875 64.457 23.5891C65.3468 23.5891 65.7393 24.2185 65.7393 25.0663V27.44H64.7542V25.4286C64.7542 24.9692 64.7542 24.3492 64.1205 24.3492C64.0578 24.3478 63.9952 24.3528 63.9336 24.3642H63.9392ZM63.9392 12.903V12.1747C64.0199 12.1902 64.1019 12.1971 64.1841 12.1952C64.6256 12.1806 65.0558 12.0519 65.4328 11.8217V11.8217V12.6061C65.0362 12.8204 64.5898 12.9254 64.1392 12.9105C64.0756 12.9105 64.0065 12.9105 63.9392 12.9105V12.903ZM63.9392 11.2447V10.5705H64.7766C64.7467 10.0961 64.5243 9.68526 63.9766 9.68526H63.9392V8.96439C65.3206 8.96439 65.7094 9.92804 65.7094 11.2372L63.9392 11.2447ZM63.9392 8.97186V9.68713C63.4139 9.70394 63.1485 10.0793 63.1074 10.5705H63.9392V11.2447H63.1074C63.1104 11.4742 63.1961 11.695 63.3489 11.8666C63.5017 12.0381 63.7113 12.1488 63.9392 12.1784V12.9068C62.8176 12.8358 62.1727 12.1317 62.1727 10.9589C62.1727 9.87202 62.7466 8.9756 63.9168 8.9756L63.9392 8.97186ZM63.9392 23.6582V24.3642C63.3784 24.4837 63.2569 25.1597 63.2569 25.5967V27.44H62.2736V23.675H63.2083V24.1867H63.2232C63.3961 23.9341 63.6499 23.7477 63.9429 23.6582H63.9392ZM59.9557 27.3578V26.706C60.0552 26.6476 60.1422 26.5702 60.2118 26.4782C60.3629 26.2498 60.4351 25.9783 60.4174 25.705H59.9557V25.1168H60.4174C60.4174 24.6648 60.2679 24.437 59.9557 24.3511V23.6041C60.9091 23.675 61.311 24.1643 61.311 25.1803V25.664C61.311 26.0375 61.311 26.3288 61.3259 26.6071C61.3409 26.8853 61.3446 27.1543 61.367 27.4456H60.5072C60.4813 27.2598 60.4651 27.0728 60.4586 26.8853H60.4473C60.331 27.0876 60.1608 27.2538 59.9557 27.3653V27.3578ZM59.9557 20.1659V19.4955C60.1757 19.4614 60.3736 19.3428 60.5072 19.1649C60.6578 18.9363 60.7293 18.6648 60.7109 18.3917H60.2828C60.1735 18.3917 60.0643 18.3979 59.9557 18.4104V17.8128H60.1688H60.7109C60.7109 17.2357 60.466 17.0247 59.9632 17.0004V16.2814H59.9856C61.1334 16.2814 61.61 16.7539 61.61 17.867V18.3488C61.61 18.7223 61.61 19.0155 61.6213 19.2826C61.6325 19.5496 61.6474 19.8316 61.6699 20.1286H60.8081C60.778 19.9433 60.763 19.756 60.7633 19.5683H60.7446C60.6601 19.7146 60.5477 19.8429 60.4136 19.9458C60.2795 20.0486 60.1265 20.1241 59.9632 20.1678L59.9557 20.1659ZM59.9557 12.8209V9.0559H60.8904V12.8209H59.9557ZM59.9557 8.36865V7.43488H60.8904V8.36865H59.9557ZM62.9279 20.1342H63.9055V14.6492H62.9279V20.1342ZM59.9557 7.43488V8.36865H59.8996V7.43488H59.9557ZM59.9557 9.05403V12.8209H59.8996V9.0559L59.9557 9.05403ZM59.9557 16.2796V16.9948H59.8623C59.4394 17.003 59.0303 17.1471 58.6958 17.4057L58.6659 16.5634C59.0721 16.3866 59.509 16.2908 59.952 16.2814L59.9557 16.2796ZM59.9557 17.8109V18.4086C59.5819 18.4552 59.1949 18.5953 59.1949 19.0417C59.1949 19.361 59.4641 19.5011 59.8137 19.5011C59.8623 19.5011 59.9071 19.5011 59.9557 19.5011V20.1696C59.834 20.2038 59.7083 20.2214 59.5819 20.2219C58.9145 20.2219 58.2734 19.8185 58.2734 19.1014C58.2589 18.8784 58.3124 18.6562 58.4268 18.4642C58.5413 18.2721 58.7113 18.1192 58.9145 18.0257C59.2477 17.8837 59.6065 17.8112 59.9688 17.8128L59.9557 17.8109ZM59.9557 23.6003V24.3473C59.8287 24.3148 59.698 24.2991 59.5669 24.3007C59.1466 24.3106 58.7405 24.4545 58.4079 24.7115L58.378 23.873C58.7905 23.6908 59.2356 23.5936 59.6865 23.5873C59.7837 23.5873 59.8735 23.5873 59.9595 23.5873L59.9557 23.6003ZM59.9557 25.1168V25.705C59.5183 25.705 58.9014 25.7928 58.9014 26.3531C58.9014 26.6743 59.1725 26.8125 59.5258 26.8125C59.6761 26.8164 59.8246 26.7796 59.9557 26.706V27.3597C59.749 27.4696 59.5189 27.5286 59.2846 27.5315C58.6173 27.5315 57.9649 27.1281 57.9649 26.411C57.9505 26.1875 58.0044 25.9649 58.1196 25.7727C58.2348 25.5806 58.4058 25.428 58.6098 25.3353C59.011 25.1699 59.4437 25.0946 59.8772 25.1149L59.9557 25.1168ZM55.7891 27.4904V26.6369C55.9798 26.6953 56.1784 26.7243 56.3779 26.7229C56.7623 26.7283 57.1438 26.6559 57.4995 26.51L57.5406 27.369C57.1603 27.4658 56.7702 27.5197 56.3779 27.5296C56.181 27.5292 55.9843 27.5161 55.7891 27.4904ZM55.7891 23.1446V22.293C55.984 22.2641 56.1808 22.2498 56.3779 22.2501C56.7722 22.2535 57.1631 22.3249 57.5331 22.4611L57.4621 23.3258C57.1262 23.1367 56.7446 23.0436 56.3592 23.0569C56.1656 23.0551 55.9731 23.0847 55.7891 23.1446V23.1446ZM55.7891 18.1863V17.3683C56.1629 17.3067 56.4527 17.1013 56.4527 16.6325C56.4646 16.4431 56.4018 16.2565 56.2778 16.1127C56.1538 15.9689 55.9784 15.8793 55.7891 15.8631V15.0432C56.7349 15.1217 57.5182 15.4952 57.5182 16.5709C57.5182 17.6783 56.7704 18.1284 55.7891 18.1863ZM55.7891 12.8209V9.28561C55.8865 9.38735 55.965 9.50561 56.0209 9.63484C56.1362 9.42505 56.3075 9.25132 56.5157 9.13296C56.7239 9.0146 56.9609 8.95625 57.2004 8.96439C58.135 8.96439 58.3949 9.59936 58.3949 10.4398V12.8209H57.4116V10.5798C57.4116 10.2287 57.4116 9.73382 56.8508 9.73382C56.2022 9.73382 56.1181 10.507 56.1181 10.9981V12.8227L55.7891 12.8209ZM55.7891 9.28561V12.8209H55.1442V10.5798C55.1442 10.2287 55.1442 9.73382 54.5834 9.73382C53.9347 9.73382 53.8525 10.507 53.8525 10.9981V12.8227H52.8636V9.0559H53.7777V9.58442H53.7889C53.9098 9.39684 54.0757 9.24251 54.2717 9.1355C54.4676 9.0285 54.6872 8.97224 54.9105 8.97186C55.0706 8.96172 55.2311 8.98431 55.3821 9.03826C55.5332 9.09221 55.6717 9.17637 55.7891 9.28561V9.28561ZM55.7891 15.0432V15.8612C55.6873 15.8424 55.5841 15.8331 55.4806 15.8332H55.1255V17.3926H55.4806C55.584 17.3924 55.6872 17.3837 55.7891 17.3665V18.1863C55.7106 18.1863 55.6358 18.1863 55.5517 18.1863H55.1255V20.1286H54.0974V15.0302H55.3909C55.5274 15.0302 55.6582 15.0302 55.7891 15.0432V15.0432ZM55.7891 22.293V23.1446C55.0731 23.3781 54.6451 24.0635 54.6451 24.9057C54.6451 25.748 55.0582 26.3998 55.7891 26.6369V27.4904C54.4581 27.3037 53.5796 26.4875 53.5796 24.9786C53.5796 23.4397 54.4039 22.4947 55.7891 22.293V22.293ZM49.7643 27.44V23.6265C50.4018 23.774 50.699 24.338 50.699 25.0663V27.44H49.7643ZM49.7643 12.8545V12.184C49.8739 12.1701 49.9794 12.1336 50.0743 12.0771C50.1692 12.0205 50.2514 11.9451 50.3158 11.8553C50.4686 11.6277 50.5409 11.3556 50.5214 11.0822H50.0971C49.9865 11.0829 49.876 11.0897 49.7662 11.1027V10.5051C49.841 10.5051 49.912 10.5051 49.9812 10.5051H50.5233C50.5233 9.92991 50.2803 9.71701 49.7755 9.69647V8.96439H49.8017C50.9495 8.96439 51.4261 9.43688 51.4261 10.5518V11.0318C51.4261 11.4053 51.4261 11.6966 51.4411 11.9655C51.456 12.2345 51.4598 12.5146 51.4822 12.8059H50.6205C50.5938 12.6203 50.5788 12.4332 50.5756 12.2457H50.5644C50.4778 12.3948 50.3625 12.5254 50.2252 12.6299C50.0879 12.7344 49.9313 12.8107 49.7643 12.8545V12.8545ZM49.7643 8.97186V9.689H49.6709C49.2493 9.69825 48.8418 9.84224 48.5082 10.0999L48.482 9.25946C48.8854 9.07642 49.3214 8.97608 49.7643 8.96439V8.97186ZM49.7643 10.5051V11.1027C49.3905 11.1457 49.0073 11.2895 49.0073 11.734C49.0073 12.0552 49.2764 12.1952 49.6297 12.1952C49.6748 12.1952 49.7199 12.1915 49.7643 12.184V12.8545C49.643 12.8907 49.5171 12.9095 49.3905 12.9105C48.7231 12.9105 48.082 12.509 48.082 11.79C48.0676 11.5672 48.1217 11.3454 48.2369 11.1542C48.3522 10.963 48.5231 10.8114 48.7269 10.7199C49.0585 10.5766 49.4161 10.5035 49.7774 10.5051H49.7643ZM49.7643 23.6265V27.44H49.7083V25.4286C49.7083 24.9692 49.7083 24.3492 49.0708 24.3492C48.3624 24.3492 48.2091 25.1149 48.2091 25.5967V27.44H47.2333V23.675H48.1586V24.1867H48.1698C48.3089 23.9905 48.4956 23.8328 48.7123 23.7282C48.9291 23.6237 49.1689 23.5759 49.4092 23.5891C49.5286 23.5883 49.6477 23.6009 49.7643 23.6265V23.6265ZM44.6144 27.4755V26.8013C44.725 26.7877 44.8317 26.7519 44.928 26.6961C45.0244 26.6402 45.1085 26.5655 45.1752 26.4763C45.3263 26.2479 45.3985 25.9764 45.3808 25.7032H44.9546C44.8441 25.7006 44.7335 25.7062 44.6238 25.72V25.1224C44.6948 25.1224 44.7658 25.1224 44.8369 25.1224H45.3808C45.3808 24.549 45.1378 24.3343 44.6238 24.3137V23.5966H44.6462C45.7977 23.5966 46.2706 24.0728 46.2706 25.1821V25.6658C46.2706 26.0393 46.2706 26.3307 46.2856 26.6089C46.3005 26.8872 46.308 27.1561 46.3304 27.4475H45.4687C45.4401 27.2621 45.4251 27.0748 45.4238 26.8872H45.407C45.2339 27.1808 44.9528 27.3952 44.6238 27.4848L44.6144 27.4755ZM44.6144 20.1342V16.5205C44.9976 16.7651 45.1752 17.2021 45.1752 17.867V18.3488C45.1752 18.7223 45.1752 19.0155 45.1902 19.2826C45.2051 19.5496 45.2126 19.8316 45.2313 20.1286L44.6144 20.1342ZM44.6144 9.77491V9.0559H45.2892V8.30889L46.2687 7.9914V9.05777H47.138V9.77677H46.2687V11.5304C46.2687 11.8516 46.3547 12.1523 46.7305 12.1523C46.8861 12.1588 47.0406 12.1226 47.1772 12.0477L47.2071 12.8227C46.9711 12.8883 46.7267 12.9185 46.4818 12.9124C45.7136 12.9124 45.2892 12.438 45.2892 11.6929V9.77491H44.6144ZM48.7699 16.4178C48.4201 16.3301 48.0612 16.2844 47.7006 16.2814C46.9361 16.2814 46.2239 16.6363 46.2239 17.4486C46.2239 18.8063 47.9306 18.3021 47.9306 19.0435C47.9306 19.417 47.5324 19.5029 47.2856 19.5029C46.9489 19.4965 46.6184 19.4108 46.3211 19.2527L46.2613 20.0595C46.6266 20.1608 47.0037 20.2141 47.3828 20.2182C48.1773 20.2182 48.9624 19.8652 48.9624 18.9912C48.9624 17.6317 47.2595 18.0108 47.2595 17.4132C47.2595 17.0901 47.5698 16.9948 47.8333 16.9948C48.1339 16.9929 48.432 17.048 48.7119 17.1573L48.7699 16.4178ZM44.6144 9.0559V9.77491H44.5658V9.0559H44.6144ZM44.6144 16.5261V20.1398H44.3602C44.3265 19.9399 44.3266 19.6916 44.3172 19.5795H44.3022C44.217 19.7262 44.1035 19.8547 43.9685 19.9575C43.8335 20.0604 43.6795 20.1357 43.5153 20.179V19.5085C43.6262 19.4938 43.733 19.457 43.8293 19.4002C43.9256 19.3434 44.0096 19.2678 44.0761 19.178C44.2269 18.9496 44.2979 18.6777 44.2779 18.4048H43.8555C43.7437 18.4049 43.632 18.4112 43.5209 18.4235V17.8259H43.7359H44.2779C44.2779 17.2488 44.0387 17.0378 43.5209 17.0135V16.2814H43.5471C43.9201 16.2584 44.2921 16.3413 44.62 16.5205L44.6144 16.5261ZM44.6144 23.5947V24.3119H44.521C44.164 24.3186 43.8159 24.424 43.5153 24.6163V23.8058C43.8681 23.6782 44.2393 23.6082 44.6144 23.5985V23.5947ZM44.6144 25.128V25.7256C44.2406 25.7704 43.8667 25.9123 43.8667 26.3568C43.8667 26.678 44.1359 26.8162 44.4892 26.8162C44.5342 26.8168 44.5792 26.8137 44.6238 26.8069V27.4811C44.5022 27.5161 44.3764 27.5343 44.2499 27.5352C43.9998 27.5358 43.7531 27.4769 43.5302 27.3634V25.3652L43.5788 25.3409C43.906 25.1999 44.2581 25.1256 44.6144 25.1224V25.128ZM43.5153 16.287V16.9948H43.4255C43.0039 17.0034 42.5962 17.1475 42.2628 17.4057L42.2329 16.5634C42.6379 16.3869 43.0735 16.2912 43.5153 16.2814V16.287ZM43.5153 17.8184V18.416C43.1414 18.4627 42.7676 18.6028 42.7676 19.0491C42.7676 19.3685 43.0405 19.5085 43.39 19.5085C43.4386 19.5085 43.4798 19.5085 43.5246 19.5085V20.1696C43.403 20.2043 43.2772 20.2219 43.1508 20.2219C42.4834 20.2219 41.8423 19.8185 41.8423 19.1014C41.8286 18.878 41.8829 18.6558 41.998 18.4638C42.1131 18.2718 42.2836 18.1191 42.4872 18.0257C42.8176 17.8831 43.174 17.8106 43.534 17.8128L43.5153 17.8184ZM43.5153 23.7945V24.6051C43.4592 24.6387 43.4106 24.6742 43.3583 24.7115L43.3321 23.873C43.3882 23.845 43.4517 23.8188 43.519 23.7945H43.5153ZM43.5153 25.3577V27.356C43.3362 27.2709 43.1851 27.1367 43.0795 26.9691C42.9739 26.8014 42.9182 26.6072 42.919 26.4091C42.905 26.1949 42.954 25.9812 43.06 25.7944C43.1659 25.6076 43.3242 25.4558 43.5153 25.3577V25.3577ZM31.148 27.5278V26.8106C31.5584 26.7789 31.9554 26.6509 32.307 26.4371V27.2308C31.9509 27.424 31.5532 27.5279 31.148 27.5334V27.5278ZM31.148 25.8601V25.1915H31.6471C31.6247 24.818 31.4826 24.4781 31.148 24.3529V23.6059C32.2584 23.7609 32.5855 24.6611 32.5855 25.847L31.148 25.8601ZM31.148 20.2107V19.4843C31.2277 19.4973 31.3084 19.5036 31.3892 19.5029C31.832 19.4893 32.2637 19.3605 32.6416 19.1294V19.1294V19.9269C32.2427 20.1362 31.7965 20.2391 31.3462 20.2257C31.2789 20.2257 31.2116 20.2257 31.148 20.2257V20.2107ZM31.148 18.5542V17.88H31.9817C31.9649 17.4057 31.7331 16.9948 31.1854 16.9948H31.148V16.2814C32.5294 16.2814 32.9182 17.2432 32.9182 18.5542H31.148ZM31.148 14.4456V13.6183C31.2565 13.5602 31.3458 13.472 31.4052 13.3643C31.4646 13.2566 31.4915 13.134 31.4826 13.0114L31.148 12.1V9.13807L32.0303 11.8068H32.0453L32.9482 9.0559H33.9464L32.5369 12.791C32.2397 13.5735 32.0229 14.3429 31.148 14.4344V14.4456ZM38.4925 9.06524H37.5092V10.9085C37.5092 11.3941 37.356 12.1598 36.6475 12.1598C36.0213 12.1598 36.0101 11.5379 36.0101 11.0785V9.0559H35.0268V11.4333C35.0268 12.2811 35.4212 12.9105 36.3091 12.9105C36.5476 12.9105 36.783 12.8566 36.9976 12.7528C37.2123 12.649 37.4006 12.4979 37.5485 12.311H37.5728V12.8209H38.5074V9.0559L38.4925 9.06524ZM40.0029 12.8209H40.9824V10.9776C40.9824 10.4976 41.1319 9.73195 41.8441 9.73195C42.4741 9.73195 42.4778 10.3501 42.4778 10.8114V12.8209H43.4611V10.4472C43.4611 9.59936 43.0741 8.97186 42.1825 8.97186C41.9423 8.9575 41.7024 9.00489 41.4858 9.10951C41.2691 9.21413 41.0829 9.3725 40.945 9.56948H40.9282V9.0559H40.0029V12.8209ZM38.1616 20.1342H41.1693V19.3274H39.1785V15.032H38.1597V20.136L38.1616 20.1342ZM39.1766 22.4611C38.6912 22.3179 38.1874 22.2468 37.6812 22.2501C35.9446 22.2501 34.8773 23.2287 34.8773 24.9786C34.8773 26.7004 36.025 27.5296 37.6812 27.5296C38.2408 27.5144 38.7959 27.4246 39.3318 27.2626V24.5154H37.2756V25.3203H38.3598V26.6482C38.1401 26.701 37.9146 26.7261 37.6887 26.7229C36.597 26.7229 35.9521 25.9404 35.9521 24.9057C35.9521 23.8711 36.612 23.0569 37.8046 23.0569C38.2544 23.0582 38.6993 23.1497 39.1131 23.3258L39.1804 22.4611H39.1766ZM40.3356 27.44H41.3114V26.058C41.3114 25.5164 41.3114 24.5229 42.1077 24.5229C42.2581 24.5153 42.4082 24.5441 42.5451 24.6069V23.6171C42.4484 23.5943 42.349 23.5849 42.2498 23.5891C41.6609 23.5891 41.259 24.1793 41.2179 24.5322H41.203V23.675H40.3281L40.3356 27.44ZM27.6655 10.8487H26.9178V11.6537H27.9515L28.3871 12.8209H29.5348L27.5216 7.72061H26.9178V8.74216L27.6655 10.8487ZM31.1462 9.13807V12.1L30.0358 9.0559H31.12L31.1462 9.13807ZM31.1462 13.6202V14.4363C31.0863 14.4363 31.034 14.4363 30.9592 14.4363C30.7243 14.4357 30.4907 14.4011 30.2657 14.3336L30.3293 13.6108C30.4929 13.6626 30.6644 13.6854 30.8359 13.6781C30.9406 13.6787 31.0441 13.6557 31.1387 13.6108L31.1462 13.6202ZM31.1462 16.2833V16.9948C30.6209 17.0116 30.3554 17.3889 30.3143 17.88H31.1462V18.5542H30.3143C30.317 18.7839 30.4026 19.0049 30.5555 19.1765C30.7083 19.3481 30.9181 19.4587 31.1462 19.488V20.2145C30.0246 20.1435 29.3759 19.4394 29.3759 18.2685C29.3759 17.1816 29.9573 16.2852 31.1237 16.2852L31.1462 16.2833ZM31.1462 23.6134V24.3604C31.0515 24.3261 30.9515 24.309 30.8508 24.31C30.29 24.31 30.0208 24.6928 29.9797 25.1989H31.1462V25.8675H29.9797C30.0208 26.4763 30.4452 26.8181 31.0527 26.8181H31.1462V27.5352H31.0078C29.7666 27.5352 29.0395 26.8162 29.0395 25.5799C29.0395 24.493 29.6208 23.5947 30.791 23.5947C30.9097 23.5943 31.0284 23.6018 31.1462 23.6171V23.6134ZM26.9197 27.3485V26.5865C27.1889 26.3437 27.2935 25.9105 27.2935 25.5463C27.3057 25.177 27.1713 24.8179 26.9197 24.5472V23.7889C27.0562 23.8771 27.1774 23.9868 27.2786 24.1139H27.2917V21.9569H28.2712V27.44H27.3178V27.0161H27.3066C27.2002 27.1514 27.0681 27.2643 26.9178 27.3485H26.9197ZM26.9197 20.0427V19.2732C27.1889 19.0323 27.2935 18.599 27.2935 18.2386C27.306 17.8698 27.1716 17.5112 26.9197 17.2413V16.4775C27.0568 16.5678 27.1786 16.6794 27.2805 16.8081H27.2917V14.6492H28.2712V20.1342H27.3178V19.7046H27.3066C27.1998 19.8411 27.0678 19.9558 26.9178 20.0427H26.9197ZM26.9197 10.8487H26.172L26.9197 8.74216V7.72061H26.3589L24.3774 12.8209H25.4355L25.8822 11.6537H26.9178V10.8487H26.9197ZM26.9197 16.4775V17.2413C26.8517 17.1751 26.7713 17.1231 26.6831 17.0881C26.5948 17.0532 26.5005 17.0361 26.4056 17.0378C25.7719 17.0378 25.5944 17.7344 25.5944 18.2386C25.5944 18.7428 25.7813 19.4581 26.4243 19.4581C26.6074 19.462 26.7848 19.3951 26.9197 19.2714V20.0408C26.6832 20.1631 26.4195 20.2235 26.1533 20.2163C24.9943 20.2163 24.5718 19.2658 24.5718 18.2367C24.5718 17.2077 24.9943 16.2796 26.1533 16.2796C26.4214 16.2667 26.6876 16.3316 26.9197 16.4663V16.4775ZM26.9197 23.7889V24.5472C26.7808 24.4165 26.5963 24.3455 26.4056 24.3492C25.7719 24.3492 25.5944 25.0421 25.5944 25.5463C25.5944 26.0505 25.7813 26.7677 26.4243 26.7677C26.6071 26.77 26.784 26.7033 26.9197 26.5809V27.3429C26.6845 27.4697 26.4205 27.5341 26.1533 27.5296C24.9943 27.5296 24.5718 26.5772 24.5718 25.5463C24.5718 24.5154 24.9943 23.5891 26.1533 23.5891C26.4222 23.5797 26.688 23.6492 26.9178 23.7889H26.9197Z" fill="#004A98"/>
</svg>
