<svg width="43" height="34" viewBox="0 0 43 34" fill="none" xmlns="http://www.w3.org/2000/svg">
<g clip-path="url(#clip0)">
<rect width="43" height="34" fill="white"/>
<path d="M43 -1H0V27.7107H43V-1Z" fill="#164194"/>
<path d="M10.451 13.4778L9.32275 12.6759L10.6975 12.6061L11.1557 11.2103L11.7551 12.5769L13.1299 12.5071L12.0722 13.4473L12.5651 14.772L11.3316 14.0399L10.098 14.9116L10.451 13.4829V13.4778ZM11.6486 18.604L10.5563 17.8034L11.9374 17.7285L12.361 16.3327L12.9938 17.6917L14.3339 17.6219L13.2762 18.5279L13.7704 19.8868L12.5368 19.1547L11.2956 20.0277L11.6486 18.604ZM15.2426 22.3675L14.1503 21.6061L15.525 21.5364L15.982 20.1406L16.5827 21.459L17.9574 21.3892L16.8651 22.3307L17.3939 23.6896L16.1257 22.9283L14.9269 23.7988L15.2426 22.3675ZM20.3179 23.866L19.2256 23.1047L20.6003 23.0349L21.0585 21.6391L21.6567 22.9638L23.0314 22.894L21.9391 23.8355L22.4679 25.1932L21.1997 24.4319L20.0009 25.3036L20.3179 23.866ZM25.5344 22.6466L24.4433 21.8396L25.8181 21.8054L26.2763 20.4096L26.8745 21.7343L28.2492 21.6645L27.1568 22.606L27.6857 23.9294L26.4175 23.1973L25.2186 24.069L25.5344 22.6466ZM29.4121 19.0227L28.3185 18.2614L29.6932 18.1916L30.1514 16.7959L30.7509 18.1193L32.1256 18.0495L31.0333 18.991L31.5621 20.3487L30.2926 19.5874L29.0604 20.4439L29.4121 19.0227ZM30.9639 14.0995L29.8703 13.2989L31.2451 13.2291L31.7033 11.8333L32.3027 13.1923L33.6774 13.1225L32.5851 14.0285L33.1165 15.3938L31.8471 14.6629L30.6482 15.5333L30.9639 14.0995ZM29.6598 8.91366L29.3428 10.3411L30.5763 9.4707L31.8098 10.2028L31.281 8.84388L32.4093 7.90238L30.9973 7.97216L30.3979 6.64873L29.9756 8.04449L28.5636 8.11428L29.6598 8.91366ZM26.0645 5.21745L24.9722 4.45613L26.3469 4.38634L26.8039 2.99059L27.4033 4.31402L28.778 4.24423L27.6857 5.18573L28.2145 6.54469L26.9451 5.81255L25.7475 6.64873L26.0645 5.21745ZM21.1304 3.6872L20.0368 2.92588L21.4115 2.82056L21.8351 1.4248L22.4692 2.78376L23.8093 2.71397L22.7516 3.65421L23.2445 4.9789L22.011 4.24677L20.7774 5.11848L21.1304 3.6872ZM15.9486 4.87105L14.8563 4.10973L16.231 4.03994L16.6892 2.64419L17.2874 3.96762L18.6634 3.89783L17.5698 4.83679L18.0639 6.16022L16.8304 5.42935L15.5969 6.29979L15.9486 4.87105ZM12.0722 8.38962L10.9799 7.6283L12.3546 7.55851L12.8115 6.16276L13.411 7.52172L14.7857 7.41767L13.6934 8.3579L14.2222 9.71686L12.9527 8.98599L11.7551 9.82217L12.0722 8.38962Z" fill="#FFED00"/>
<path d="M7.12256 31.2166H7.68477V32.8255C7.67681 32.9601 7.69872 33.0947 7.74895 33.2201C7.81569 33.366 7.96202 33.4396 8.18665 33.4396C8.41127 33.4396 8.55504 33.366 8.62178 33.2201C8.67201 33.0947 8.69392 32.9601 8.68596 32.8255V31.2166H9.24817V32.8267C9.26064 33.0509 9.21653 33.2746 9.11981 33.4777C8.95808 33.7619 8.64788 33.904 8.18922 33.904C7.73098 33.904 7.41907 33.7619 7.25605 33.4777C7.15934 33.2746 7.11523 33.0509 7.12769 32.8267L7.12256 31.2166Z" fill="#1D1D1B"/>
<path d="M9.77197 31.2166H10.3522L11.4047 33.0437V31.2166H11.9181V33.8368H11.3662L10.288 31.9779V33.8368H9.77454L9.77197 31.2166Z" fill="#1D1D1B"/>
<path d="M12.9447 33.8368H12.394V31.2166H12.9447V33.8368Z" fill="#1D1D1B"/>
<path d="M15.503 33.6035C15.3028 33.8082 15.0131 33.9101 14.634 33.9093C14.2549 33.9084 13.9657 33.8065 13.7663 33.6035C13.4976 33.3497 13.3633 32.9898 13.3633 32.5237C13.3633 32.0428 13.4916 31.6837 13.7663 31.4426C13.9666 31.2396 14.2554 31.1368 14.634 31.1368C15.0127 31.1368 15.3028 31.2396 15.503 31.4426C15.77 31.6837 15.9035 32.0428 15.9035 32.5237C15.9035 33.0046 15.77 33.3535 15.503 33.6035ZM15.1564 33.205C15.2833 32.9999 15.3503 32.7641 15.3503 32.5237C15.3503 32.2832 15.2833 32.0474 15.1564 31.8423C15.095 31.7639 15.0156 31.7011 14.9248 31.6592C14.8339 31.6173 14.7342 31.5974 14.634 31.6012C14.5336 31.5978 14.4338 31.6177 14.3427 31.6593C14.2515 31.701 14.1715 31.7632 14.109 31.841C13.9814 32.0461 13.9139 32.2822 13.9139 32.523C13.9139 32.7638 13.9814 32.9999 14.109 33.205C14.1715 33.2828 14.2515 33.3451 14.3427 33.3867C14.4338 33.4284 14.5336 33.4483 14.634 33.4449C14.7341 33.4487 14.8337 33.429 14.9245 33.3873C15.0153 33.3456 15.0948 33.2831 15.1564 33.205V33.205ZM15.2476 30.3958L14.7008 30.9274H14.3311L14.6751 30.3958H15.2476Z" fill="#1D1D1B"/>
<path d="M16.3169 31.2166H16.8971L17.9496 33.0437V31.2166H18.463V33.8368H17.9085L16.8303 31.9779V33.8368H16.3169V31.2166Z" fill="#1D1D1B"/>
<path d="M21.9673 31.681H20.5656V32.2367H21.8492V32.6922H20.5656V33.3647H22.0314V33.8368H20.0239V31.2166H21.9673V31.681Z" fill="#1D1D1B"/>
<path d="M22.4629 31.2166H23.0264V32.8255C23.0184 32.9601 23.0403 33.0947 23.0906 33.2201C23.1573 33.366 23.3036 33.4396 23.5283 33.4396C23.7529 33.4396 23.8967 33.366 23.9634 33.2201C24.0136 33.0947 24.0355 32.9601 24.0276 32.8255V31.2166H24.5898V32.8267C24.6022 33.0509 24.5581 33.2746 24.4614 33.4777C24.2997 33.7619 23.9895 33.904 23.5308 33.904C23.0726 33.904 22.7607 33.7619 22.5977 33.4777C22.5003 33.2748 22.4561 33.0509 22.4693 32.8267L22.4629 31.2166Z" fill="#1D1D1B"/>
<path d="M26.827 31.2837C26.9232 31.3246 27.0082 31.3877 27.0747 31.4677C27.1287 31.5339 27.172 31.608 27.2031 31.6872C27.2367 31.7756 27.2533 31.8694 27.2518 31.9639C27.2505 32.0919 27.2179 32.2177 27.1568 32.3306C27.0894 32.4523 26.9766 32.5434 26.8424 32.5843C26.9496 32.6219 27.0403 32.6949 27.0991 32.7912C27.1586 32.9194 27.1851 33.0602 27.1761 33.201V33.3761C27.173 33.4576 27.1777 33.5392 27.1902 33.6197C27.1954 33.6505 27.2073 33.6798 27.225 33.7057C27.2427 33.7315 27.2659 33.7533 27.2929 33.7695V33.8354H26.6806C26.6639 33.7771 26.6524 33.7301 26.6447 33.6946C26.6305 33.6201 26.6227 33.5445 26.6216 33.4687V33.2251C26.6345 33.1071 26.6035 32.9885 26.5343 32.8914C26.4436 32.8249 26.3307 32.795 26.2185 32.8077H25.6717V33.8354H25.1313V31.2165H26.3982C26.5441 31.2126 26.6895 31.2354 26.827 31.2837V31.2837ZM25.6717 31.672V32.3712H26.2673C26.3583 32.3761 26.4493 32.3618 26.5343 32.3293C26.5875 32.3013 26.6309 32.2582 26.6588 32.2054C26.6868 32.1526 26.698 32.0928 26.6909 32.0336C26.6989 31.9716 26.6889 31.9087 26.6621 31.8521C26.6353 31.7954 26.5927 31.7475 26.5394 31.7139C26.4588 31.6787 26.3708 31.663 26.2827 31.6682L25.6717 31.672Z" fill="#1D1D1B"/>
<path d="M29.8214 33.6034C29.6211 33.8081 29.3315 33.91 28.9524 33.9092C28.5733 33.9083 28.2841 33.8064 28.0847 33.6034C27.8168 33.3496 27.6825 32.9897 27.6816 32.5236C27.6816 32.0427 27.8164 31.6836 28.0847 31.4425C28.2849 31.2395 28.5737 31.1367 28.9524 31.1367C29.331 31.1367 29.6211 31.2395 29.8214 31.4425C30.0884 31.6836 30.2218 32.0427 30.2218 32.5236C30.2218 33.0045 30.0884 33.3534 29.8214 33.6034ZM29.4748 33.205C29.6016 32.9998 29.6687 32.764 29.6687 32.5236C29.6687 32.2832 29.6016 32.0474 29.4748 31.8422C29.4134 31.7638 29.334 31.7011 29.2431 31.6592C29.1523 31.6172 29.0526 31.5973 28.9524 31.6011C28.852 31.5977 28.7522 31.6176 28.661 31.6593C28.5698 31.7009 28.4898 31.7631 28.4274 31.8409C28.2998 32.0461 28.2322 32.2821 28.2322 32.523C28.2322 32.7638 28.2998 32.9999 28.4274 33.205C28.4898 33.2828 28.5698 33.345 28.661 33.3866C28.7522 33.4283 28.852 33.4482 28.9524 33.4448C29.0525 33.4486 29.152 33.4289 29.2429 33.3872C29.3337 33.3455 29.4132 33.283 29.4748 33.205Z" fill="#1D1D1B"/>
<path d="M32.423 32.7025C32.2311 32.8419 31.9956 32.9098 31.7581 32.8941H31.2074V33.8369H30.6567V31.2166H31.794C32.0215 31.2045 32.2454 31.2769 32.4217 31.4197C32.5048 31.5008 32.5688 31.599 32.6091 31.7074C32.6495 31.8157 32.6653 31.9315 32.6553 32.0465C32.6553 32.3561 32.5778 32.5748 32.423 32.7025ZM32.0007 31.7585C31.9155 31.6964 31.811 31.6659 31.7054 31.6722H31.2074V32.4436H31.7041C31.8112 32.4503 31.9168 32.4162 31.9994 32.3485C32.0375 32.3091 32.0666 32.2621 32.0848 32.2107C32.1029 32.1592 32.1097 32.1045 32.1046 32.0503C32.1102 31.9971 32.1038 31.9433 32.0858 31.8928C32.0678 31.8424 32.0387 31.7965 32.0007 31.7585V31.7585Z" fill="#1D1D1B"/>
<path d="M35.0596 31.681H33.6566V32.2367H34.9402V32.6922H33.6566V33.3647H35.1237V33.8368H33.1162V31.2166H35.0596V31.681Z" fill="#1D1D1B"/>
<path d="M36.3137 31.2166H36.9401L37.8771 33.8368H37.2764L37.1018 33.2975H36.1263L35.9466 33.8368H35.3677L36.3137 31.2166ZM36.2765 32.847H36.9555L36.6205 31.8155L36.2765 32.847Z" fill="#1D1D1B"/>
</g>
<defs>
<clipPath id="clip0">
<rect width="43" height="34" fill="white"/>
</clipPath>
</defs>
</svg>
